Coordinates
version=1
nRows=7
nColumns=33
inDegrees=yes

Units are S.I. units (second, meters, Newtons, ...)
Angles are in degrees.

endheader
time	ground_thorax_rot_x	ground_thorax_rot_y	ground_thorax_rot_z	ground_thorax_tx	ground_thorax_ty	ground_thorax_tz	clav_prot_r	clav_elev_r	scapula_abduction_r	scapula_elevation_r	scapula_upward_rot_r	scapula_winging_r	shoulder_elv_r	plane_of_elev_r	axial_rot_r	elbow_flexion_r	pro_sup_r	wrist_flex_r	wrist_dev_r	clav_prot_l	clav_elev_l	scapula_abduction_l	scapula_elevation_l	scapula_upward_rot_l	scapula_winging_l	shoulder_elv_l	plane_of_elev_l	axial_rot_l	elbow_flexion_l	pro_sup_l	wrist_flex_l	wrist_dev_l
      8.44000000	     29.14983124	     33.31961923	     43.40651073	     16.15544813	    774.75522973	    -41.58439526	     12.91002790	     35.85528593	     27.20921914	     45.00000000	    -45.00000000	  -2243.90273898	  -4248.29494527	     20.29423501	   -154.81856793	      1.14711308	    174.32380067	     12.71341335	     12.88020494	    -13.04821750	    -45.00000000	    -34.38792138	     45.00000000	    -45.00000000	  -1339.23886692	    794.34460404	     23.70677809	     23.25623794	   1788.96844613	    405.76894531	     12.78643341	    -15.16029829
      8.45000000	     29.24930611	     33.14468859	     43.12177834	     12.94881194	    775.45924578	    -41.37234966	     12.94456413	     35.80533214	     27.15269745	     45.00000000	    -45.00000000	  -2244.08895928	  -4248.25193779	     20.31487672	   -154.88645221	      1.14123173	    174.08376978	     12.74728904	     12.92380951	    -12.92698171	    -45.00000000	    -34.50009250	     45.00000000	    -45.00000000	  -1339.09504636	    794.45751765	     23.75926504	     23.24446796	   1788.97595387	    405.77348341	     12.80295359	    -15.28046383
      8.46000000	     29.37741980	     32.95439315	     42.83150384	      9.72247534	    776.23771288	    -41.17260478	     12.91869242	     35.81979380	     27.15169793	     45.00000000	    -45.00000000	  -2244.28378368	  -4248.18920164	     20.31182822	   -154.92104690	      1.13001068	    173.79703379	     12.79097631	     12.93965048	    -12.83835574	    -45.00000000	    -34.59395487	     45.00000000	    -45.00000000	  -1338.95067875	    794.58417568	     23.79395834	     23.22128301	   1788.96204572	    405.77620809	     12.83397814	    -15.39561993
      8.47000000	     29.47046176	     32.75783354	     42.57064610	      6.48515658	    777.08715995	    -40.98634032	     12.97225076	     35.73455422	     27.07602847	     45.00000000	    -45.00000000	  -2244.43420287	  -4248.10504136	     20.34704015	   -155.05084045	      1.12628255	    173.42999541	     12.81374786	     12.98477082	    -12.68280592	    -45.00000000	    -34.73063580	     45.00000000	    -45.00000000	  -1338.78691938	    794.71676948	     23.78831091	     23.20969306	   1789.01364858	    405.75696939	     12.83972831	    -15.51078833
      8.48000000	     29.58588483	     32.50326269	     42.28770101	      3.23939330	    778.00352910	    -40.81468486	     12.96847454	     35.72539463	     27.07542919	     45.00000000	    -45.00000000	  -2244.59933623	  -4248.08212333	     20.38163407	   -155.17409874	      1.13384596	    173.03122440	     12.84187807	     13.02134981	    -12.57695627	    -45.00000000	    -34.85378017	     45.00000000	    -45.00000000	  -1338.64664054	    794.83773225	     23.81874597	     23.24260825	   1788.99906166	    405.72946065	     12.86859552	    -15.61282182
      8.49000000	     29.67298189	     32.33471144	     42.01014859	     -0.01345739	    778.98327528	    -40.65877847	     13.01362781	     35.65186359	     26.99477783	     45.00000000	    -45.00000000	  -2244.78458194	  -4248.01012259	     20.41374705	   -155.30405658	      1.11476379	    172.59565461	     12.86903129	     13.06796136	    -12.42123542	    -45.00000000	    -34.96066728	     45.00000000	    -45.00000000	  -1338.47333700	    794.96062265	     23.83958154	     23.21335364	   1789.05307683	    405.67872709	     12.89047177	    -15.72637749
      8.50000000	     29.74388390	     32.13500137	     41.74716039	     -3.26687556	    780.02077950	    -40.52099455	     13.05820801	     35.55175340	     26.88458186	     45.00000000	    -45.00000000	  -2244.93211048	  -4247.91586966	     20.46148937	   -155.40792169	      1.09035159	    172.13237974	     12.88268584	     13.12935513	    -12.24343936	    -45.00000000	    -35.10497935	     45.00000000	    -45.00000000	  -1338.34179580	    795.08386253	     23.85017096	     23.18818258	   1789.10061978	    405.60073655	     12.91373429	    -15.82411233
